<?xml version="1.0" standalone="no"?>
<!DOCTYPE svg PUBLIC "-//W3C//DTD SVG 20010904//EN"
 "http://www.w3.org/TR/2001/REC-SVG-20010904/DTD/svg10.dtd">
<svg version="1.0" xmlns="http://www.w3.org/2000/svg"
 width="104.000000pt" height="91.000000pt" viewBox="0 0 104.000000 91.000000"
 preserveAspectRatio="xMidYMid meet">

<g transform="translate(0.000000,91.000000) scale(0.100000,-0.100000)"
fill="#000000" stroke="none">
<path d="M0 455 l0 -455 520 0 520 0 0 455 0 455 -520 0 -520 0 0 -455z m658
399 c47 -53 117 -204 95 -204 -5 0 -19 -9 -31 -20 -26 -24 -28 -66 -6 -98 9
-13 14 -24 13 -26 -2 -1 -37 -17 -78 -35 -131 -57 -235 -93 -270 -92 -19 0
-43 -6 -52 -15 -9 -8 -41 -22 -70 -29 -60 -16 -59 -17 -86 57 -13 36 -23 48
-41 50 l-24 3 21 27 c15 19 21 40 21 77 0 108 77 237 180 298 69 42 117 53
214 49 79 -3 80 -3 114 -42z m93 -473 c-23 -75 -84 -176 -127 -210 -26 -21
-37 -23 -114 -19 -64 3 -99 10 -140 29 -52 25 -161 112 -150 122 3 2 17 7 32
11 23 5 25 3 21 -15 -5 -17 -2 -20 13 -17 13 3 18 11 17 26 -3 27 8 28 25 2
24 -38 89 -16 80 27 -3 15 15 25 97 54 55 20 136 53 180 72 l80 36 3 -25 c2
-14 -6 -56 -17 -93z"/>
<path d="M487 794 c-16 -16 -6 -35 16 -32 12 2 22 10 22 18 0 16 -26 25 -38
14z"/>
<path d="M322 783 c-7 -3 -19 -18 -28 -35 -37 -72 37 -145 109 -107 31 16 37
28 37 72 0 47 -28 77 -72 76 -18 0 -39 -3 -46 -6z"/>
<path d="M220 625 c0 -22 4 -26 23 -23 30 4 30 42 0 46 -19 3 -23 -1 -23 -23z"/>
<path d="M563 365 c-27 -19 -37 -59 -22 -88 16 -30 28 -37 65 -37 40 0 64 27
64 73 0 57 -58 86 -107 52z"/>
</g>
</svg>
